<svg width="21" height="19" viewBox="0 0 21 19" fill="none" xmlns="http://www.w3.org/2000/svg">
<path d="M9.38659 17.1603L9.38587 17.1596C6.80104 14.8157 4.69578 12.9033 3.23088 11.1111C1.77148 9.32559 1 7.72062 1 6C1 3.18674 3.19555 1 6 1C7.58885 1 9.12206 1.74223 10.1206 2.90564L10.5 3.34771L10.8794 2.90564C11.8779 1.74223 13.4112 1 15 1C17.8045 1 20 3.18674 20 6C20 7.72062 19.2285 9.32559 17.7691 11.1111C16.3042 12.9033 14.199 14.8157 11.6141 17.1596L11.6134 17.1603L10.5 18.1738L9.38659 17.1603Z" stroke="white"/>
</svg>
