<svg width="127" height="70" viewBox="0 0 127 70" fill="none" xmlns="http://www.w3.org/2000/svg">
<g clip-path="url(#clip0_292_871)">
<path d="M64.93 0.124023C65.7675 0.31485 66.5624 0.45806 67.3236 0.704933C70.257 1.65627 72.1614 3.71215 73.3103 6.49772C74.3358 8.98443 74.8105 11.5868 74.8453 14.2856C74.8666 15.938 74.8405 17.5881 74.8188 19.239C74.8142 19.5882 74.7767 19.939 74.7279 20.2853C74.5749 21.3689 74.57 21.369 73.45 21.369C66.5274 21.3692 59.6047 21.3698 52.6821 21.3683C51.7319 21.3681 51.7283 21.4672 51.6554 20.4104C51.4777 17.8338 51.3865 15.2542 51.3712 12.6747C51.3619 11.1117 51.4061 9.53419 51.8394 8.00727C52.8293 4.51949 55.193 2.31455 58.4457 0.939866C59.3648 0.551426 60.3348 0.355244 61.3489 0.143324C62.5516 0.124023 63.7117 0.124023 64.93 0.124023ZM62.3144 14.6517C62.4173 14.8697 62.6298 14.9658 62.8069 15.1043C63.3123 15.4994 63.5819 15.0037 63.8333 14.7684C64.1452 14.4766 63.7612 14.2188 63.598 13.9872C63.3565 13.6444 63.0651 13.6649 62.7622 13.9344C62.5611 14.1133 62.3452 14.275 62.3144 14.6517ZM63.83 15.8592C63.8344 16.4092 64.2069 16.6224 64.6632 16.6731C64.9928 16.7096 65.3019 16.4977 65.3733 16.1845C65.4573 15.8164 65.1908 15.5072 64.9213 15.2942C64.4946 14.957 64.3389 15.4915 64.0585 15.629C63.9872 15.664 63.9327 15.7332 63.83 15.8592ZM63.9624 12.6832C63.6906 13.0386 63.7594 13.339 64.1383 13.5472C64.3669 13.6728 64.5812 13.983 64.8946 13.7159C65.2332 13.4275 65.3256 12.7039 65.0538 12.4255C64.6269 11.9881 64.3259 12.3437 63.9624 12.6832ZM67.0798 13.5813C67.3568 13.7628 67.6415 14.0183 67.9063 13.5765C68.1332 13.1981 68.363 12.8064 67.9484 12.4029C67.5891 12.0531 67.2987 12.3066 67.0378 12.5412C66.6994 12.8455 66.5818 13.1852 67.0798 13.5813ZM63.1989 16.5883C62.948 16.65 62.7493 16.8012 62.5862 16.9881C62.3776 17.2271 62.1862 17.4951 62.4431 17.8112C62.7051 18.1337 63.0366 18.1515 63.386 17.9599C64.0279 17.608 64 17.2682 63.1989 16.5883ZM60.9645 15.7504C60.6918 16.206 60.9862 16.492 61.3318 16.6202C61.7734 16.7841 62.2365 16.4855 62.3414 16.136C62.501 15.6042 61.9275 15.4009 61.6111 15.1099C61.3048 15.2328 61.1713 15.4705 60.9645 15.7504ZM66.2003 13.7819C65.809 13.6188 65.7578 14.0687 65.5052 14.1719C65.018 14.3708 65.1629 14.6735 65.4662 14.9156C65.8006 15.1825 66.1757 15.3963 66.5534 14.9718C66.9149 14.5654 66.8257 14.2164 66.2003 13.7819ZM62.4946 8.36342C62.2849 8.58987 62.229 8.81147 62.479 9.05689C62.7734 9.34602 63.0985 9.34819 63.438 9.1772C63.6954 9.04752 63.8609 8.82774 63.8088 8.53051C63.7508 8.19966 63.5215 7.96724 63.2017 7.90451C62.9058 7.84648 62.7373 8.11266 62.4946 8.36342ZM62.2391 12.7087C62.1036 12.4099 61.894 12.1219 61.552 12.2829C61.2319 12.4336 60.8956 12.7045 60.8617 13.0883C60.8345 13.3966 61.1388 13.5757 61.4162 13.6696C61.881 13.8268 62.2464 13.4388 62.2391 12.7087ZM59.2975 12.7097C58.8556 12.0882 58.7375 12.0969 58.1441 12.7252C57.8773 13.0076 57.7612 13.263 58.1285 13.5415C58.4594 13.7925 58.8048 13.8752 59.1115 13.5271C59.2868 13.3281 59.4144 13.0826 59.2975 12.7097ZM60.3859 7.90933C60.0248 7.77887 59.8632 8.07471 59.6722 8.26679C59.4961 8.44378 59.2235 8.62841 59.4686 8.94068C59.7076 9.24511 60.0095 9.38466 60.3898 9.22392C60.9528 8.98596 60.9788 8.47669 60.3859 7.90933ZM60.8569 7.26655C60.8731 7.52595 61.0487 7.66715 61.2567 7.76276C61.6505 7.94383 61.9938 7.84629 62.1959 7.46951C62.3964 7.09577 62.2868 6.76462 61.9362 6.51155C61.5386 6.2245 61.3477 6.51841 61.1474 6.78173C61.0493 6.91061 60.9674 7.05177 60.8569 7.26655ZM57.8995 14.439C57.8841 14.0693 57.7205 13.7309 57.3482 13.7375C56.9689 13.7442 56.6695 14.0458 56.5277 14.4082C56.3909 14.7579 56.6707 14.975 56.9213 15.0871C57.4569 15.3269 57.7048 14.9599 57.8995 14.439ZM59.4608 14.3454C59.2449 14.7695 59.5549 14.9406 59.8396 15.1121C60.1724 15.3127 60.427 15.1199 60.667 14.9158C60.9424 14.6817 60.7985 14.4404 60.6674 14.1997C60.3153 13.5535 60.1279 13.5655 59.4608 14.3454ZM68.5528 12.1283C69.0021 12.3527 69.3199 12.1696 69.4976 11.7617C69.6732 11.3586 69.4775 11.0043 69.1276 10.8291C68.6976 10.6137 68.546 11.0778 68.3157 11.296C67.9754 11.6185 68.1627 11.8747 68.5528 12.1283ZM68.2721 14.257C67.9771 14.677 68.2359 14.948 68.5802 15.0645C69.002 15.2072 69.3596 14.9684 69.5207 14.5788C69.6756 14.2041 69.5022 13.8648 69.1205 13.741C68.7435 13.6187 68.532 13.9315 68.2721 14.257ZM63.793 11.2594C63.6892 11.1615 63.5883 11.0602 63.481 10.9664C63.2887 10.7983 63.0808 10.775 62.8658 10.9215C62.6062 11.0983 62.3633 11.3107 62.3593 11.6429C62.3561 11.9094 62.5741 12.084 62.7968 12.1883C63.1524 12.355 63.7753 11.8272 63.793 11.2594ZM60.834 11.3849C60.7779 11.2775 60.7365 11.1586 60.6629 11.0651C60.4787 10.8311 60.238 10.7012 59.9846 10.9329C59.7288 11.167 59.2888 11.353 59.4205 11.7819C59.5187 12.102 59.8616 12.2814 60.2179 12.2126C60.5979 12.1393 60.7869 11.8491 60.834 11.3849ZM57.955 10.1256C57.9545 10.442 58.1905 10.5957 58.4134 10.7268C58.7716 10.9375 58.9916 10.6735 59.1707 10.4234C59.3714 10.1431 59.4709 9.83656 59.1777 9.53765C58.9226 9.27767 58.6634 9.32135 58.4231 9.54215C58.2597 9.69224 58.1254 9.87396 57.955 10.1256ZM61.7759 19.3987C62.0406 19.1835 62.4218 19.0157 62.2722 18.579C62.1816 18.3145 62.0098 17.9815 61.6668 18.0933C61.274 18.2214 60.8825 18.4945 60.9452 18.9743C60.9929 19.3401 61.2594 19.5991 61.7759 19.3987ZM65.2029 7.2392C65.213 7.02653 65.1679 6.83174 65.0159 6.67291C64.6941 6.33658 64.3831 6.45409 64.1064 6.72276C63.8899 6.93289 63.6174 7.17398 63.8752 7.50946C64.194 7.92442 64.9004 7.81748 65.2029 7.2392ZM62.2096 10.0526C62.2819 9.62397 62.0156 9.31235 61.6803 9.29825C61.2995 9.28225 61.0852 9.69474 60.9245 10.0193C60.7505 10.3708 61.0753 10.5668 61.2959 10.6879C61.8659 11.001 61.9286 10.3977 62.2096 10.0526ZM64.9333 18.2356C64.3824 17.7808 64.1655 18.3165 63.9087 18.6118C63.6184 18.9456 63.8993 19.1708 64.1435 19.3767C64.3868 19.5819 64.6197 19.5188 64.7906 19.2989C65.0174 19.0072 65.4097 18.726 64.9333 18.2356ZM57.4209 12.0866C57.6759 11.7836 58.0908 11.5143 57.7606 11.0455C57.6283 10.8576 57.3734 10.6307 57.1381 10.8353C56.8643 11.0734 56.3996 11.2907 56.5516 11.7434C56.649 12.0335 56.8972 12.3911 57.4209 12.0866ZM66.2464 16.6898C65.7504 16.6659 65.5114 16.9885 65.3582 17.3855C65.2235 17.7349 65.4736 18.0796 65.8306 18.0387C66.2039 17.9961 66.4607 17.7396 66.6221 17.4258C66.7848 17.1095 66.5922 16.8867 66.2464 16.6898ZM69.1194 9.25402C69.3676 9.09284 69.6257 8.91229 69.5154 8.57228C69.4248 8.29303 69.2089 8.05551 68.9136 8.00741C68.5809 7.95323 68.429 8.26257 68.2483 8.47698C68.1363 8.60994 68.0747 8.77786 68.2111 8.92353C68.4316 9.15903 68.6421 9.44531 69.1194 9.25402ZM67.1135 16.454C67.5603 16.4671 68.0844 16.5827 68.1536 15.9216C68.1841 15.6299 68.027 15.3082 67.717 15.2407C67.2365 15.1361 67.1056 15.6523 66.8256 15.8854C66.619 16.0574 66.7965 16.2985 67.1135 16.454ZM58.1927 16.4033C58.6484 16.798 58.987 16.4362 59.242 16.1612C59.5126 15.8692 59.1797 15.5972 59.0122 15.3614C58.8538 15.1384 58.6298 15.1274 58.4368 15.3355C58.1748 15.6181 57.7093 15.8477 58.1927 16.4033ZM60.7742 17.5904C60.8959 17.2696 60.6505 17.1004 60.4816 16.9085C60.1288 16.5078 59.8776 16.8082 59.6152 17.0442C59.3234 17.3064 59.3379 17.5488 59.6088 17.8263C60.0728 18.3015 60.3737 17.8561 60.7742 17.5904ZM58.739 18.1514C58.2873 18.2772 57.9845 18.5243 58.1671 19.0334C58.2672 19.3127 58.5285 19.5552 58.8285 19.4743C59.1963 19.3752 59.3212 18.9755 59.3859 18.648C59.4605 18.2704 59.1151 18.2077 58.739 18.1514ZM57.1865 17.9991C57.6325 18.0843 57.8609 17.7801 57.9427 17.4493C58.0272 17.1079 57.7948 16.8291 57.4776 16.6623C57.3035 16.5707 57.1155 16.5193 56.9839 16.7161C56.7522 17.0625 56.6726 17.4304 56.925 17.8051C56.9686 17.8699 57.0491 17.9098 57.1865 17.9991ZM67.509 10.7379C68.1108 10.4358 68.2958 10.0933 68.0492 9.73397C67.879 9.48604 67.6388 9.4009 67.3559 9.47844C67.0775 9.55476 66.9011 9.733 66.8824 10.0416C66.8586 10.4341 67.0551 10.6492 67.509 10.7379ZM66.142 7.97933C65.9699 7.9629 65.8185 8.01696 65.6853 8.1215C65.4558 8.30148 65.3463 8.53965 65.4221 8.82354C65.4912 9.08229 65.6904 9.23324 65.9511 9.27584C66.2372 9.32259 66.4056 9.14114 66.5447 8.92544C66.8288 8.48481 66.6488 8.19956 66.142 7.97933ZM62.7241 6.31032C62.9632 6.41092 63.2013 6.41685 63.4376 6.30133C63.6569 6.19416 63.9527 6.10277 63.8936 5.80515C63.833 5.4992 63.5426 5.3582 63.25 5.30496C62.8689 5.2356 62.6404 5.49694 62.4416 5.75921C62.2477 6.01502 62.4124 6.17009 62.7241 6.31032ZM68.0613 18.6376C68.0939 18.2923 67.9175 18.1534 67.5906 18.1425C67.149 18.1277 66.9149 18.3859 66.7616 18.7531C66.685 18.9365 66.6632 19.1271 66.8707 19.2383C67.1673 19.3972 67.4651 19.3739 67.7434 19.1815C67.9019 19.0719 67.997 18.9158 68.0613 18.6376ZM67.6569 7.74112C67.8623 7.51642 68.3754 7.40019 67.9726 6.95158C67.7265 6.67762 67.4089 6.54181 67.0374 6.71605C66.7588 6.84667 66.6423 7.07262 66.7384 7.36888C66.8721 7.7812 67.1842 7.86273 67.6569 7.74112ZM56.8689 8.45566C56.6415 9.02466 56.7378 9.38327 57.1259 9.35237C57.5122 9.32163 57.7525 9.05748 57.8558 8.69595C57.9446 8.38491 57.8346 8.09356 57.5514 7.96189C57.172 7.7855 57.1045 8.20032 56.8689 8.45566ZM58.0426 7.56807C58.2544 7.82499 58.5398 7.83496 58.8292 7.78009C59.1704 7.71541 59.3339 7.45314 59.4451 7.15428C59.5115 6.9757 59.4443 6.83283 59.2924 6.72956C58.9982 6.52951 58.7455 6.67505 58.4996 6.83504C58.2568 6.99297 58.0212 7.1601 58.0426 7.56807ZM56.0425 10.7928C56.5169 10.563 56.6054 9.75586 56.1924 9.44141C56.1059 9.37554 56.0017 9.31523 55.9115 9.37407C55.6003 9.57716 55.4294 9.90675 55.395 10.2456C55.3608 10.5828 55.5701 10.826 56.0425 10.7928ZM54.2325 14.0201C54.2051 14.0971 54.1689 14.1722 54.1521 14.2515C54.0956 14.5172 54.0482 14.7904 54.3283 14.9663C54.476 15.059 54.6504 15.2388 54.8213 15.0857C55.0504 14.8804 55.2243 14.5928 55.2352 14.2885C55.2466 13.9717 54.9511 13.8046 54.7084 13.6636C54.4378 13.5063 54.3707 13.7762 54.2325 14.0201ZM70.0451 13.6763C70.4717 13.6635 70.7669 13.3964 70.8627 13.0427C70.9734 12.6343 70.5574 12.4798 70.3147 12.2616C69.5092 12.793 69.436 13.1089 70.0451 13.6763ZM68.8809 16.7683C68.4178 16.7562 68.1954 17.0461 68.1601 17.4451C68.1342 17.7371 68.3906 17.9578 68.6457 18.0077C68.9803 18.0733 69.2517 17.8352 69.3642 17.5448C69.4994 17.1959 69.3678 16.9 68.8809 16.7683ZM71.4724 12.3217C71.7234 12.1265 71.9744 11.9313 72.236 11.7279C72.1405 11.5574 72.0925 11.4135 71.9976 11.3145C71.8163 11.1252 71.7129 10.6935 71.362 10.8922C70.9988 11.0978 70.8786 11.4927 71.0319 11.9155C71.0959 12.0919 71.2049 12.2427 71.4724 12.3217ZM55.299 16.9546C55.1144 16.7319 54.9981 16.3289 54.6179 16.4947C54.2707 16.6462 54.1427 16.9949 54.2527 17.3783C54.34 17.6827 54.5244 17.9142 54.8772 17.7963C55.2243 17.6803 55.5256 17.4915 55.299 16.9546ZM64.1437 4.13517C63.8251 4.22662 63.6886 4.41607 63.8499 4.73391C64.016 5.06132 64.2857 5.24276 64.6569 5.14222C64.9444 5.06436 65.209 4.89812 65.1835 4.54894C65.1595 4.22075 64.8945 4.12589 64.6096 4.10164C64.488 4.09129 64.3639 4.11064 64.1437 4.13517ZM54.8755 8.14462C54.5217 8.15904 54.4008 8.44298 54.2867 8.69656C54.1657 8.96545 53.9731 9.32497 54.4036 9.47034C54.7971 9.60324 55.1401 9.40975 55.2714 9.00266C55.379 8.66907 55.3211 8.34955 54.8755 8.14462ZM59.8717 6.31426C59.9707 6.34024 60.0694 6.38659 60.1689 6.38828C60.445 6.39298 60.7248 6.35194 60.8287 6.05072C60.9282 5.76218 60.7874 5.53346 60.5549 5.35751C60.2676 5.14012 60.0499 5.31262 59.8506 5.49833C59.6911 5.64696 59.4607 5.74064 59.4171 5.98687C59.4786 6.17527 59.6387 6.22625 59.8717 6.31426ZM65.5801 11.8515C65.7941 12.37 66.1215 12.1552 66.4199 11.9645C66.6466 11.8196 66.9058 11.5995 66.7137 11.3212C66.4917 10.9994 66.1202 10.8974 65.7259 11.0316C65.288 11.1806 65.3954 11.4743 65.5801 11.8515ZM65.3261 10.0006C65.216 9.63587 64.895 9.59626 64.5948 9.53762C64.3544 9.49067 64.1393 9.56146 64.0025 9.77237C63.8512 10.0056 63.9905 10.2161 64.1148 10.3967C64.4159 10.8342 64.9096 10.7037 65.3261 10.0006ZM69.7218 9.89572C69.4815 10.2508 69.6897 10.4634 69.968 10.6436C70.1559 10.7652 70.3631 10.9088 70.582 10.7333C70.8425 10.5243 70.8188 10.2241 70.7393 9.94559C70.5656 9.33772 70.2605 9.30464 69.7218 9.89572ZM56.3689 13.1777C56.8092 12.6263 56.2585 12.5138 55.9869 12.234C55.6793 12.5255 55.2752 12.7131 55.271 13.1441C55.2686 13.3857 55.5289 13.5709 55.7701 13.6377C56.0826 13.7242 56.1687 13.4208 56.3689 13.1777ZM71.9108 16.7111C71.473 16.363 70.8785 16.5954 70.8043 17.1512C70.7634 17.4571 71.0305 17.5658 71.2145 17.7164C71.3654 17.8401 71.5382 17.8255 71.6479 17.6635C71.8271 17.399 72.096 17.1578 71.9108 16.7111ZM65.4667 6.13341C65.5759 6.32973 65.686 6.52506 65.9393 6.58212C66.191 6.47426 66.3501 6.25996 66.5169 6.05726C66.7143 5.81725 66.6852 5.60657 66.4015 5.46277C66.1921 5.35666 65.9834 5.09968 65.7439 5.25406C65.482 5.42294 65.3483 5.71379 65.4667 6.13341ZM72.0322 14.7182C72.4349 14.2217 71.8731 13.9962 71.7011 13.6956C71.5674 13.4621 71.3397 13.6845 71.2113 13.8412C70.9919 14.109 70.8451 14.3973 71.1251 14.7179C71.3867 15.0175 71.6699 15.0531 72.0322 14.7182ZM70.6305 15.4209C70.1376 14.9205 69.9701 15.4967 69.7404 15.7207C69.4603 15.9939 69.6513 16.2396 69.9027 16.431C70.077 16.5637 70.2726 16.6385 70.4619 16.479C70.7797 16.2113 70.8762 15.8834 70.6305 15.4209ZM54.0318 11.6886C54.1026 11.7882 54.1676 11.8925 54.2451 11.9865C54.4967 12.2922 54.7436 12.2807 55.0151 11.9944C55.3435 11.6482 55.2681 11.3277 54.9807 11.0207C54.6565 10.6744 54.4753 11.0166 54.2861 11.1997C54.1733 11.3089 54.1101 11.4694 54.0318 11.6886ZM58.3876 4.96694C58.6085 5.13776 58.8544 5.23742 59.128 5.13579C59.3805 5.04199 59.6436 4.90869 59.6009 4.58184C59.5641 4.29963 59.3682 4.09235 59.0854 4.04168C58.745 3.98069 58.3039 4.50546 58.3876 4.96694ZM71.9393 9.12348C72.0596 8.75971 71.876 8.49072 71.6518 8.24296C71.5333 8.11203 71.3848 8.05551 71.2155 8.1757C70.9193 8.38598 70.8755 9.12732 71.1656 9.4193C71.531 9.78714 71.6802 9.36624 71.9393 9.12348ZM70.471 7.09454C70.283 6.88661 70.1156 6.57055 69.7796 6.86509C69.5349 7.07964 69.3637 7.35139 69.6245 7.66791C69.8399 7.92925 70.0864 8.17193 70.4614 7.92804C70.8037 7.70544 70.7861 7.4406 70.471 7.09454ZM53.908 13.2898C54.1124 12.9129 53.9805 12.5669 53.6651 12.3927C53.3502 12.2189 53.1656 12.5647 52.9927 12.7779C52.7713 13.0509 52.841 13.3005 53.0955 13.5257C53.4327 13.8241 53.6457 13.6 53.908 13.2898ZM70.5899 18.6239C70.6229 18.2936 70.4839 18.054 70.1659 17.8153C69.9748 18.0335 69.7998 18.2312 69.6272 18.431C69.524 18.5505 69.3525 18.652 69.4354 18.8438C69.521 19.0422 69.6868 19.1699 69.905 19.1945C70.269 19.2355 70.4895 19.0673 70.5899 18.6239ZM67.1101 5.12344C67.4863 5.2227 67.8313 5.12554 67.856 4.72395C67.8783 4.36224 67.5083 4.11362 67.2005 4.08766C66.7649 4.05092 66.6314 4.44502 66.5308 4.78049C66.6664 4.98773 66.8572 5.02075 67.1101 5.12344ZM68.077 5.82978C67.9655 6.17362 68.2658 6.29508 68.4366 6.48036C68.627 6.68689 68.8369 6.64655 69.0437 6.49185C69.2432 6.34251 69.3485 6.15247 69.2814 5.90201C69.2165 5.66012 69.0603 5.50985 68.7996 5.49379C68.5345 5.47746 68.3201 5.59162 68.077 5.82978ZM55.5583 7.66077C55.7086 7.85403 55.8549 8.05284 56.1743 8.07998C56.3278 7.8612 56.4894 7.6286 56.6535 7.39786C56.797 7.19613 56.6897 7.05592 56.5428 6.92292C56.3814 6.77695 56.1984 6.64856 56.0058 6.83627C55.7914 7.0453 55.5301 7.23842 55.5583 7.66077ZM55.6901 15.3675C55.5178 15.5573 55.4226 15.776 55.4555 16.0358C55.4838 16.2595 55.5059 16.526 55.7912 16.5416C56.0885 16.5578 56.2399 16.3013 56.3969 16.0874C56.5331 15.9017 56.5594 15.709 56.3981 15.5313C56.2275 15.3433 56.0748 15.0687 55.6901 15.3675ZM63.6828 3.25197C63.6857 2.90342 63.43 2.86115 63.1799 2.86142C62.7935 2.86185 62.5388 3.05763 62.4263 3.42144C63.2485 4.18956 63.2639 4.18815 63.6828 3.25197ZM73.1233 10.0497C72.9961 9.84272 72.8888 9.61494 72.6194 9.5573C72.2133 9.90243 72.0768 10.3053 72.2805 10.6025C72.4334 10.8256 72.6534 10.9195 72.9218 10.8248C73.2907 10.6948 73.2807 10.4302 73.1233 10.0497ZM73.1911 12.7982C73.0493 12.5229 72.95 12.0714 72.5306 12.3556C72.2586 12.54 72.1651 12.9345 72.2974 13.301C72.3595 13.4728 72.4263 13.6915 72.6568 13.6434C73.0172 13.5682 73.1917 13.3015 73.2249 12.9409C73.2267 12.9212 73.2191 12.9007 73.1911 12.7982ZM56.9051 6.38156C57.2707 6.65009 57.7712 6.53888 58.0321 6.13669C58.1891 5.8948 58.1454 5.69047 57.8939 5.57253C57.4457 5.36242 57.1486 5.60225 56.9071 5.95434C56.8326 6.063 56.8202 6.18341 56.9051 6.38156ZM61.039 4.77048C61.2972 4.88556 61.4504 5.17364 61.7564 5.21948C62.0485 5.02731 62.3008 4.82303 62.2211 4.42671C62.1848 4.24596 62.0613 4.11856 61.8839 4.11749C61.463 4.11493 61.0569 4.16517 61.039 4.77048ZM55.8232 17.9821C55.6447 18.1476 55.5985 18.3602 55.5969 18.5929C55.595 18.8593 55.6639 19.0843 55.9443 19.172C56.2494 19.2673 56.3977 19.0464 56.5263 18.8383C56.7713 18.4415 56.552 18.1351 55.8232 17.9821ZM72.2324 15.5274C72.1669 15.8876 72.1157 16.29 72.6261 16.2923C72.8984 16.2935 73.1408 16.0055 73.2012 15.7392C73.2612 15.4748 73.0896 15.2261 72.8141 15.1125C72.4964 14.9814 72.376 15.2098 72.2324 15.5274ZM54.6512 6.76963C55.0168 6.95402 55.235 6.74283 55.4056 6.46673C55.6276 6.10731 55.5056 5.7093 55.1726 5.69113C54.8423 5.67312 54.6867 5.95325 54.4953 6.15652C54.289 6.37564 54.3753 6.56148 54.6512 6.76963ZM66.3171 3.14219C66.1344 3.0251 65.9313 3.00026 65.7218 3.01952C65.5127 3.03874 65.2741 3.0657 65.2426 3.31806C65.2114 3.56847 65.3934 3.74415 65.601 3.85208C65.9579 4.03763 66.239 3.84025 66.4933 3.61916C66.7135 3.42772 66.5512 3.29962 66.3171 3.14219ZM56.9331 4.9634C56.9887 4.61283 56.7857 4.36667 56.4943 4.34716C56.1339 4.32305 55.9627 4.67606 55.7878 4.94782C55.6996 5.08495 55.7339 5.23348 55.874 5.32325C56.1835 5.52163 56.459 5.40067 56.7171 5.20584C56.7815 5.15727 56.8333 5.09209 56.9331 4.9634ZM72.0087 18.723C72.0994 18.9876 72.2696 19.081 72.5289 18.9514C72.852 18.7899 73.016 18.5213 73.0003 18.1617C72.9906 17.9407 72.8084 17.8438 72.6278 17.8114C72.2716 17.7475 72.2024 18.0561 72.0909 18.2856C72.0387 18.3928 72.0285 18.5203 72.0087 18.723ZM59.7644 3.71909C60.1687 3.99253 60.7805 3.93248 60.9386 3.59228C61.0635 3.32323 60.9085 3.16003 60.6781 3.05967C60.2825 2.88736 59.9188 3.11422 59.7644 3.71909ZM53.811 9.76086C53.5385 9.50418 53.3271 9.57601 53.2054 9.90169C53.0525 10.3108 53.0258 10.6966 53.6 10.9393C53.6081 10.5164 54.3498 10.3582 53.811 9.76086ZM63.9547 2.63993C64.4407 2.77229 64.8742 2.75822 65.1644 2.22118C64.8216 1.98936 64.498 1.78884 64.1188 1.98335C63.9021 2.0945 63.7126 2.28777 63.9547 2.63993ZM57.4713 4.09337C58.0344 4.1852 58.0366 3.64221 58.3189 3.40956C57.8667 2.98206 57.6527 3.04303 57.0647 3.72493C57.1102 3.90245 57.2674 3.96865 57.4713 4.09337ZM70.9647 6.71757C71.1842 6.87422 71.4011 6.94813 71.6023 6.69098C71.7966 6.44272 71.7614 6.19497 71.57 5.97105C71.4102 5.78408 71.2012 5.69062 70.9839 5.87187C70.7116 6.09895 70.6411 6.36811 70.9647 6.71757ZM68.0147 3.88192C68.2012 4.0219 68.41 4.10252 68.6414 4.05232C68.8799 4.00061 69.1219 3.83576 68.9866 3.60003C68.8495 3.36118 68.6055 3.03174 68.2989 3.10182C68.016 3.16649 67.8005 3.44895 68.0147 3.88192ZM69.7092 5.28324C69.9126 5.45537 70.1159 5.46684 70.2977 5.25967C70.4504 5.08564 70.4761 4.87603 70.3095 4.7093C70.1125 4.51207 69.9515 4.15868 69.5672 4.4529C69.1632 4.76227 69.3768 4.99435 69.7092 5.28324ZM57.3991 19.3531C57.1196 19.5219 56.8421 19.6922 56.7849 20.14C57.2447 20.183 57.6684 20.3392 58.0872 20.0276C58.0009 19.6665 57.7475 19.4991 57.3991 19.3531ZM61.4408 2.11409C61.2823 2.20516 61.0974 2.27661 61.1362 2.51533C61.709 2.82936 62.0315 2.75697 62.4264 2.21205C62.153 1.94176 61.8894 1.67849 61.4408 2.11409ZM53.2458 15.2948C53.1019 15.4678 53.1082 15.6778 53.1079 15.8831C53.1076 16.055 53.1471 16.2193 53.3315 16.2856C53.5347 16.3587 53.6988 16.2579 53.8271 16.1181C53.9522 15.9817 54.0852 15.8116 53.9439 15.6245C53.7891 15.4192 53.6464 15.1594 53.2458 15.2948ZM71.419 19.1288C70.8689 19.1818 70.8399 19.6356 70.6821 20.0134C71.086 20.2395 71.4129 20.1586 71.6583 19.862C71.8828 19.5907 71.6781 19.3684 71.419 19.1288ZM54.6694 19.3699C54.4867 19.5369 54.2552 19.7084 54.5099 19.971C54.7867 20.2565 55.1086 20.2441 55.465 20.0458C55.3456 19.6497 55.3979 19.14 54.6694 19.3699ZM53.5344 18.7699C53.8381 18.9877 53.9974 18.7751 54.1061 18.5466C54.2333 18.2793 54.0531 18.0759 53.8801 17.898C53.7351 17.7489 53.5478 17.7165 53.3818 17.8529C53.1758 18.0222 53.2024 18.2537 53.2897 18.4726C53.3259 18.5635 53.4084 18.6359 53.5344 18.7699ZM68.7435 19.3967C68.4799 19.5786 68.2255 19.7691 68.0732 20.0722C68.3058 20.2479 68.5371 20.18 68.748 20.1618C68.9748 20.1423 69.3125 20.1807 69.3211 19.8531C69.3282 19.5839 69.1456 19.3588 68.7435 19.3967ZM66.6217 2.6795C66.8469 2.80986 67.092 2.82605 67.3428 2.80103C67.4969 2.78566 67.6329 2.73194 67.6497 2.55423C67.6653 2.38882 67.5604 2.27815 67.4247 2.21524C67.1295 2.07845 66.8144 2.05929 66.5309 2.21667C66.3355 2.32513 66.417 2.49534 66.6217 2.6795ZM72.5706 8.27666C72.9277 7.77089 72.7777 7.34578 72.4092 6.90245C71.9259 7.51761 71.9592 7.84945 72.5706 8.27666ZM54.1339 7.20767C54.0098 7.11925 53.8659 6.92096 53.7323 7.12508C53.5225 7.44569 53.2384 7.77354 53.4717 8.27712C53.9291 8.061 54.3303 7.86993 54.1339 7.20767ZM66.2189 19.5528C65.7506 19.4622 65.6111 19.8245 65.3233 20.1772C65.8194 20.1976 66.2099 20.2482 66.5905 20.1339C66.6184 19.8393 66.4726 19.7052 66.2189 19.5528ZM60.4627 19.5954C59.9527 19.3958 59.8105 19.8112 59.5149 20.1395C60.0053 20.2086 60.409 20.2786 60.7857 20.0589C60.8086 19.8248 60.6682 19.7335 60.4627 19.5954ZM59.0187 2.89258C59.3918 2.9167 59.5226 2.66968 59.5799 2.36709C59.6054 2.23229 59.5036 2.11181 59.38 2.09105C58.9666 2.02165 58.7704 2.33257 58.5383 2.56602C58.6192 2.78257 58.7977 2.79968 59.0187 2.89258ZM63.5405 20.1371C63.7636 19.9554 63.7355 19.7562 63.4925 19.6679C63.06 19.5107 62.7173 19.6588 62.4875 20.0811C62.9151 20.2291 62.9151 20.2291 63.5405 20.1371ZM62.5918 1.41973C62.9129 1.96474 63.2775 1.95061 63.7144 1.34206C63.3419 1.25799 62.9924 1.22383 62.5918 1.41973ZM53.1302 19.2723C53.0441 19.1753 53.0537 18.9849 52.7958 18.9932C52.8412 19.3152 52.6391 19.6497 52.9207 19.9635C53.3441 19.8793 53.3268 19.6399 53.1302 19.2723ZM73.3571 19.8911C73.6051 19.6123 73.5297 19.3092 73.4051 18.9986C73.2189 19.274 72.8448 19.5156 73.3571 19.8911Z" fill="white"/>
<path d="M127.124 35.6723C124.917 36.9766 122.718 38.2567 120.057 38.2521C118.507 38.2495 116.957 38.2461 115.407 38.2526C107.226 38.2875 99.0437 38.3352 90.8618 38.3444C90.1728 38.3451 89.9357 38.5611 89.8333 39.2127C89.0533 44.1758 87.0677 48.6098 83.9301 52.5342C82.3204 54.5475 80.463 56.2974 78.4004 57.8349C78.2611 57.9387 78.1357 58.1048 77.9096 58.0623C77.8282 57.8098 78.0581 57.7495 78.1816 57.6466C81.7185 54.6979 84.1403 50.9876 85.6424 46.6632C86.3292 44.6859 86.699 42.6387 86.7868 40.5433C86.8509 39.016 86.9516 37.4885 86.8875 35.9601C86.8627 35.3677 87.0597 35.1767 87.6594 35.18C91.6682 35.2019 95.6771 35.1877 99.6861 35.1912C108.2 35.1987 116.713 35.2076 125.227 35.2239C125.824 35.225 126.422 35.2909 127.072 35.3367C127.124 35.4397 127.124 35.5327 127.124 35.6723Z" fill="white"/>
<path d="M0.124023 35.3932C1.91355 35.1216 3.71303 35.2134 5.50697 35.2098C16.2122 35.188 26.9174 35.1934 37.6226 35.1901C38.6981 35.1897 38.6822 35.1912 38.7134 36.3027C38.7655 38.1601 38.6622 40.0187 38.8294 41.8762C39.121 45.1163 40.1424 48.1215 41.6519 50.9785C42.9895 53.5101 44.7842 55.6817 46.8902 57.6078C47.0133 57.7204 47.2232 57.7927 47.1825 58.0424C46.889 58.071 46.7391 57.8373 46.5608 57.6941C42.3956 54.3506 39.2744 50.2409 37.39 45.2161C36.6404 43.217 36.0586 41.1785 35.7917 39.0582C35.7226 38.5098 35.4968 38.3149 34.9146 38.3168C29.0867 38.3361 23.2584 38.3619 17.431 38.3043C14.3321 38.2736 11.2314 38.1659 8.13721 38.3264C5.62366 38.4568 3.44113 37.5931 1.32158 36.4168C0.942503 36.2065 0.57258 35.9796 0.161228 35.7396C0.124023 35.6257 0.124023 35.5327 0.124023 35.3932Z" fill="white"/>
<path d="M62.937 69.5771C62.825 68.1354 62.7837 66.6931 62.7075 65.2526C62.6825 64.7807 62.8149 64.5607 63.3158 64.5733C64.0984 64.5931 64.8829 64.5493 65.6647 64.5795C66.878 64.6264 67.3082 65.0929 67.3943 66.2884C67.4487 67.0445 67.4886 67.7748 66.9006 68.3714C66.7333 68.5412 66.8153 68.7131 66.9336 68.8707C67.0945 69.0849 67.26 69.2957 67.4462 69.5425C66.8872 69.5771 66.3056 69.5771 65.6452 69.5403C65.3401 69.1906 65.1561 68.7922 64.6754 68.8679C64.2429 68.9361 64.4831 69.344 64.3682 69.5771C63.9102 69.5771 63.4522 69.5771 62.937 69.5771ZM65.7873 66.111C65.4477 65.7545 65.0137 65.8618 64.6197 65.9198C64.2306 65.9769 64.2724 66.3425 64.2956 66.6208C64.319 66.9002 64.1138 67.3176 64.5436 67.4133C64.9341 67.5003 65.406 67.5895 65.7351 67.2968C66.0618 67.0063 65.9771 66.5813 65.7873 66.111Z" fill="white"/>
<path d="M53.7601 69.5772C53.4417 69.2878 53.0566 69.2259 52.7326 69.054C52.3151 68.8325 52.3455 68.5532 52.5079 68.1767C52.6844 67.7674 52.9052 67.7344 53.2814 67.9143C53.6704 68.1004 54.0905 68.2233 54.501 68.3623C54.7767 68.4556 55.0319 68.4526 55.1867 68.1415C55.3385 67.8364 55.2844 67.5613 55.0183 67.3709C54.7007 67.1436 54.3505 66.9624 54.0179 66.7555C53.2076 66.2514 53.064 65.7147 53.4201 64.5406C53.6843 63.6694 54.0192 63.4356 54.9621 63.4583C55.6952 63.4759 56.3837 63.6815 57.0653 63.932C57.6417 64.1439 57.4736 64.538 57.3625 64.9508C57.231 65.439 56.9307 65.2701 56.6348 65.1775C56.2803 65.0665 55.9228 64.9648 55.5691 64.8514C55.2852 64.7604 55.0219 64.7537 54.8906 65.0725C54.7641 65.3799 54.8649 65.6443 55.1424 65.8235C55.4023 65.9913 55.6786 66.1336 55.9393 66.3002C56.8818 66.9024 56.9728 67.1494 56.7503 68.2541C56.6583 68.7113 56.4507 69.1072 56.1966 69.5357C55.3944 69.5772 54.6063 69.5772 53.7601 69.5772Z" fill="white"/>
<path d="M70.6262 69.5772C70.3774 68.2167 69.4428 67.2629 68.7198 66.1924C68.3667 65.6696 67.9198 65.204 67.688 64.6091C68.5107 64.0259 68.9459 64.0833 69.4784 64.8123C69.7822 65.2283 70.087 65.6436 70.3977 66.0545C70.4282 66.095 70.5029 66.1021 70.5886 66.1377C70.8331 65.7068 70.8483 65.2336 70.9153 64.7737C71.0581 63.7938 71.2632 63.5615 72.0282 63.4732C72.4654 63.4227 72.6428 63.5577 72.5372 64.0271C72.3381 64.9119 72.2133 65.815 71.9816 66.6903C71.7308 67.6379 71.7951 68.5572 72.0435 69.531C71.5993 69.5772 71.1413 69.5772 70.6262 69.5772Z" fill="white"/>
<path d="M58.8445 69.5771C59.0396 68.405 59.0761 67.2089 59.166 66.02C59.2084 65.4584 58.703 65.5991 58.4025 65.54C57.7764 65.4171 57.5108 65.06 57.7011 64.5186C57.7846 64.2812 57.9306 64.1279 58.204 64.1556C59.4338 64.2797 60.6636 64.4024 61.8929 64.5311C62.3479 64.5787 62.5196 64.7989 62.4399 65.2858C62.3637 65.7518 62.1663 65.9252 61.7018 65.8848C60.7822 65.8048 60.7715 65.8158 60.6673 66.7598C60.568 67.6603 60.4917 68.5633 60.4023 69.5211C59.9002 69.5771 59.4011 69.5771 58.8445 69.5771Z" fill="white"/>
<path d="M85.2069 43.3687C84.1495 48.385 81.8021 52.6258 78.0254 56.0196C73.9366 59.6938 69.1637 61.7161 63.6165 61.9568C58.4256 62.1819 53.7104 60.8422 49.474 57.9106C45.2144 54.963 42.2828 50.9745 40.6504 46.0392C39.8368 43.5795 39.557 41.0496 39.536 38.4778C39.5294 37.6719 39.5026 36.8641 39.5435 36.0602C39.5902 35.1439 39.397 34.4301 38.7228 33.6812C36.8878 31.6432 37.5766 28.3493 40.0011 27.0519C41.1212 26.4526 43.5311 26.2465 44.981 27.6936C45.3337 28.0457 45.7167 28.1596 46.201 28.1533C47.8128 28.1326 49.4252 28.1324 51.037 28.1537C51.518 28.16 51.6925 28.0043 51.6832 27.5122C51.6577 26.1693 51.6739 24.8256 51.6782 23.4822C51.6812 22.5809 51.6847 22.5638 52.561 22.5622C59.7532 22.5491 66.9454 22.5465 74.1375 22.5269C74.6457 22.5255 74.8346 22.695 74.8268 23.207C74.8049 24.6327 74.838 26.0593 74.8108 27.4849C74.8009 28.0054 74.9882 28.167 75.4941 28.1563C76.7749 28.1294 78.0569 28.1336 79.3379 28.1529C79.7962 28.1598 80.1578 28.0505 80.5108 27.7317C82.6667 25.7846 86.0216 26.4328 87.3243 28.8249C88.3243 30.6611 87.915 32.9496 86.231 34.2997C85.7557 34.6808 85.5967 35.0763 85.6056 35.6568C85.6395 37.8873 85.6138 40.1176 85.3667 42.3386C85.3302 42.6662 85.2681 42.9909 85.2069 43.3687ZM53.6027 45.0488C52.5902 43.4777 51.9558 41.7755 51.7771 39.9052C51.6075 38.1309 51.7095 36.3532 51.6775 34.5773C51.6626 33.7493 51.6317 33.6798 50.8185 33.6701C49.1858 33.6506 47.5528 33.6635 45.9199 33.6618C45.6159 33.6615 45.3531 33.7537 45.1405 33.9786C44.6925 34.4527 44.15 34.7954 43.5516 35.0343C43.1808 35.1823 43.0666 35.4205 43.0708 35.7957C43.0837 36.953 43.0836 38.1107 43.073 39.2681C43.0555 41.1845 43.3379 43.0567 43.9467 44.87C46.1875 51.5441 50.7698 55.7918 57.4578 57.8327C58.7669 58.2322 60.1182 58.4064 61.4819 58.4945C61.914 58.5224 62.1488 58.3805 62.1312 57.9065C62.1127 57.4112 62.1193 56.9144 62.1314 56.4186C62.1419 55.9926 61.9453 55.8256 61.5275 55.8418C61.0736 55.8594 60.6168 55.8198 60.1639 55.848C59.6543 55.8796 59.4732 55.6819 59.4811 55.1677C59.5049 53.6179 59.4723 52.0672 59.496 50.5174C59.5047 49.947 59.3158 49.6184 58.767 49.3848C56.6415 48.4802 54.9243 47.0639 53.6027 45.0488ZM70.64 47.6401C69.7404 48.3383 68.8091 48.9956 67.7423 49.4066C67.2577 49.5933 67.0851 49.852 67.0942 50.365C67.1224 51.9549 67.0915 53.5457 67.1112 55.1359C67.1178 55.6654 66.9299 55.9118 66.3885 55.8506C66.2662 55.8368 66.1409 55.8496 66.017 55.8508C64.2252 55.8679 64.3014 55.738 64.2964 57.5832C64.2943 58.3777 64.3788 58.4546 65.1448 58.3384C70.9 57.4656 75.4733 54.6779 78.7624 49.86C80.5735 47.2071 81.6697 44.2781 81.9764 41.0619C82.1297 39.4535 81.9875 37.8402 82.1058 36.236C82.1645 35.4395 81.999 34.9019 81.1988 34.5995C80.8664 34.4739 80.5982 34.1709 80.3111 33.936C80.0964 33.7603 79.875 33.6473 79.5841 33.649C78.1796 33.6574 76.7751 33.6586 75.3707 33.6469C74.9699 33.6436 74.8136 33.8112 74.8239 34.204C74.8379 34.7406 74.8217 35.2779 74.8215 35.8149C74.8209 37.528 74.9209 39.2619 74.6167 40.9429C74.1351 43.6048 72.7915 45.8291 70.64 47.6401ZM57.2241 24.0527C56.7501 24.0641 56.272 24.0404 55.8029 24.0946C54.9505 24.1931 54.207 24.5091 53.7617 25.3101C53.5934 25.6128 53.4961 25.9407 53.6571 26.2568C54.0359 26.9999 54.3299 27.7639 55.0276 28.3472C55.8895 29.0677 56.8708 29.4108 57.8253 29.0457C58.7583 28.6888 59.4914 27.872 60.0993 27.0277C60.152 26.9545 60.163 26.8195 60.1383 26.728C60.0302 26.3276 60.153 25.963 60.2482 25.5806C60.3789 25.0555 60.2215 24.6414 59.6449 24.4782C58.8907 24.2648 58.1327 24.0734 57.2241 24.0527Z" fill="white"/>
<path d="M102.726 44.4058C101.369 44.3317 100.07 44.2576 98.771 44.1941C96.0902 44.063 93.409 43.9399 90.7282 43.8086C89.8586 43.766 89.7794 43.6544 90.0183 42.8456C90.1703 42.3311 90.3552 41.8252 90.4851 41.3054C90.5903 40.8847 90.8323 40.7418 91.2448 40.7596C92.7504 40.8248 94.2572 40.8658 95.7627 40.9346C97.9485 41.0345 100.133 41.1554 102.319 41.2586C105.824 41.4243 109.329 41.5997 112.835 41.7375C114.65 41.8088 116.466 41.8656 118.278 42.0021C118.584 42.0252 118.965 41.968 119.061 42.3432C119.163 42.7417 118.793 42.8962 118.522 43.0814C116.205 44.6685 113.627 44.9941 110.89 44.7914C108.193 44.5916 105.486 44.5318 102.726 44.4058Z" fill="white"/>
<path d="M19.6535 44.0949C17.3501 44.2391 15.1062 44.4775 12.8548 44.4159C11.052 44.3665 9.55848 43.4341 8.07976 42.5169C7.91778 42.4164 7.80598 42.2499 7.84997 42.044C7.90227 41.799 8.11811 41.7319 8.32285 41.7111C9.0821 41.6343 9.84224 41.559 10.6039 41.5143C12.9527 41.3765 15.3029 41.2611 17.6517 41.1221C20.9066 40.9295 24.1607 40.7237 27.4152 40.5228C29.7218 40.3803 32.0291 40.2475 34.3343 40.0838C34.7833 40.0519 35.0262 40.1587 35.1438 40.6137C35.3089 41.252 35.5138 41.8813 35.7295 42.5049C35.9009 43.0007 35.7337 43.1696 35.2308 43.1975C33.4378 43.2968 31.6472 43.4381 29.8544 43.5397C26.4738 43.7311 23.0923 43.906 19.6535 44.0949Z" fill="white"/>
<path d="M93.749 49.6433C91.8268 49.3136 89.9575 48.9908 88.0887 48.6653C87.3383 48.5346 87.2732 48.3822 87.6741 47.7494C87.9833 47.2613 88.3005 46.777 88.5831 46.2737C88.8277 45.8382 89.148 45.6693 89.6524 45.7578C93.2686 46.3921 96.8883 47.006 100.505 47.6391C103.409 48.1475 106.31 48.6747 109.214 49.191C109.551 49.251 109.901 49.3229 109.962 49.7196C110.018 50.0873 109.709 50.2563 109.443 50.4181C107.872 51.3765 106.197 51.7855 104.351 51.4593C100.838 50.8383 97.3188 50.2507 93.749 49.6433Z" fill="white"/>
<path d="M33.1579 45.5367C33.8804 45.4045 34.5532 45.2966 35.2214 45.1653C35.798 45.0519 36.2398 45.2199 36.5399 45.7297C36.8437 46.2459 37.1403 46.7663 37.4447 47.2821C37.7 47.7147 37.6201 47.949 37.0873 48.0385C33.7086 48.6059 30.3344 49.1995 26.9553 49.7639C25.0218 50.0869 23.093 50.4359 21.1493 50.7034C19.457 50.9364 17.9558 50.5385 16.5741 49.5861C16.3214 49.412 16.0279 49.2258 16.0919 48.857C16.1538 48.501 16.4927 48.4755 16.7656 48.4086C18.6319 47.9505 20.538 47.7057 22.4275 47.3737C25.984 46.7487 29.5463 46.1567 33.1579 45.5367Z" fill="white"/>
<path d="M79.241 61.4063C80.0179 62.9079 80.7715 64.3702 81.5275 65.837C81.1009 66.1952 80.6531 66.3545 80.2284 66.5561C79.9496 66.6885 79.7548 66.5213 79.5537 66.378C78.6995 65.7692 77.8466 65.1584 76.9361 64.5074C76.894 64.8533 77.0678 65.0449 77.1684 65.2528C77.456 65.8473 77.7468 66.4408 78.056 67.0243C78.2868 67.4596 78.1471 67.6941 77.72 67.8873C77.3179 68.0692 77.0269 68.1743 76.7761 67.6577C76.0638 66.1906 75.3197 64.7388 74.5693 63.2907C74.3779 62.9214 74.4352 62.7012 74.7898 62.4796C75.755 61.8762 75.7453 61.8679 76.6639 62.5673C77.4163 63.1401 78.1754 63.7041 79.0786 64.3826C78.8017 63.5325 78.42 62.9367 78.0982 62.3137C78.0224 62.167 77.944 62.0214 77.8735 61.8721C77.6928 61.4892 77.3986 61.1412 78.0212 60.8077C78.6092 60.4928 78.8959 60.6933 79.1329 61.2016C79.1591 61.2577 79.1893 61.3119 79.241 61.4063Z" fill="white"/>
<path d="M40.5517 62.0002C40.1907 62.4739 39.9409 62.4451 39.4877 62.0717C38.8274 61.5275 38.7638 61.0004 39.0525 60.2591C39.3935 59.3838 39.641 58.4721 39.9691 57.4516C39.1716 58.2487 38.4575 58.9328 37.78 59.6514C37.4175 60.0359 37.1911 59.8462 36.9248 59.5613C36.6702 59.2888 36.3414 59.0774 36.7606 58.655C37.9535 57.4532 39.1257 56.2306 40.2976 55.0081C40.5287 54.7671 40.6871 54.7637 40.9702 54.9742C41.6975 55.515 41.913 56.1159 41.5462 56.9927C41.1997 57.8211 40.992 58.7075 40.8269 59.6317C41.6269 58.8466 42.4268 58.0614 43.2243 57.2788C43.3013 57.3122 43.3657 57.3257 43.4118 57.3622C44.2868 58.054 44.3006 58.175 43.5347 58.9629C42.5556 59.9702 41.5666 60.9678 40.5517 62.0002Z" fill="white"/>
<path d="M45.6787 59.1134C46.2205 59.4965 46.7432 59.8331 47.2214 60.2243C47.9151 60.7917 48.0495 61.4133 47.6411 62.1996C47.1457 63.1534 46.5654 64.0601 45.8571 64.871C45.3355 65.4682 44.7974 65.5818 44.0792 65.2661C43.2449 64.8993 42.4993 64.3753 41.7465 63.8669C41.5006 63.7008 41.5012 63.5126 41.649 63.289C42.5828 61.8773 43.5154 60.4648 44.4503 59.0537C44.8648 58.4281 45.2509 58.8341 45.6787 59.1134ZM44.7369 61.29C44.4353 61.7584 44.1252 62.2216 43.8353 62.6972C43.6502 63.0008 43.338 63.3127 43.8411 63.6337C44.3476 63.9568 44.7297 63.9245 45.0705 63.4511C45.3957 62.9994 45.703 62.5332 45.992 62.0576C46.3674 61.4399 46.2837 61.1293 45.7448 60.7502C45.1187 60.3097 45.0487 60.945 44.7369 61.29Z" fill="white"/>
<path d="M52.9434 62.9034C53.1718 63.0926 53.0739 63.2709 53.0023 63.4383C52.4916 64.6326 51.9978 65.8348 51.4561 67.0149C51.0583 67.8814 50.4414 68.1629 49.4922 68.0211C48.9942 67.9468 48.5333 67.7765 48.1135 67.5056C47.1432 66.8792 46.911 66.2829 47.2685 65.1958C47.6682 63.9806 48.2092 62.8202 48.7149 61.6464C48.9442 61.1141 49.2853 61.3245 49.6298 61.4603C49.9802 61.5984 50.273 61.7492 50.0752 62.2277C49.6186 63.3326 49.1847 64.4467 48.7404 65.5567C48.5918 65.9279 48.6398 66.2393 48.9937 66.4742C49.4828 66.7989 49.9083 66.7185 50.1645 66.1833C50.6005 65.2726 50.9969 64.3429 51.4079 63.4202C51.8654 62.3931 51.8644 62.3927 52.9434 62.9034Z" fill="white"/>
<path d="M86.0353 53.7914C86.2359 53.5518 86.4185 53.3534 86.5787 53.1383C86.8435 52.7826 87.0739 52.5876 87.5178 52.9718C87.9256 53.3247 87.9802 53.5981 87.6171 53.9906C87.323 54.3085 87.0592 54.6548 86.7856 54.9915C86.6246 55.1895 86.5664 55.3884 86.7976 55.5845C87.0128 55.7669 87.2355 55.8378 87.453 55.6082C87.7227 55.3235 87.9892 55.034 88.2339 54.7281C88.5645 54.3148 88.8728 54.4018 89.2364 54.6921C89.6091 54.9897 89.5647 55.2571 89.2796 55.5736C89.0447 55.8344 88.8314 56.1146 88.6084 56.386C88.4037 56.6351 88.305 56.8581 88.6286 57.1172C88.9332 57.3612 89.1907 57.4443 89.4779 57.115C89.7631 56.7881 90.0726 56.4812 90.3425 56.1424C90.6157 55.7994 90.8743 55.8157 91.176 56.0894C91.448 56.3362 91.7186 56.5614 91.3736 56.9573C90.7627 57.6579 90.1688 58.3733 89.5628 59.0782C89.3071 59.3758 89.0496 59.4253 88.7162 59.1416C87.4727 58.0839 86.2171 57.0401 84.9529 56.0072C84.6027 55.7212 84.5634 55.4885 84.8856 55.1487C85.2829 54.7297 85.6354 54.2682 86.0353 53.7914Z" fill="white"/>
<path d="M85.0927 61.2549C84.3852 60.4758 83.7064 59.7304 83.017 58.9733C82.621 59.1087 82.3746 59.3976 82.1127 59.6444C81.7681 59.9691 81.5618 59.7645 81.3593 59.5035C81.1567 59.2423 80.7933 58.9967 81.2135 58.6264C82.1415 57.8084 83.073 56.9944 83.9944 56.1691C84.467 55.7458 84.6742 56.1938 84.9496 56.4348C85.2605 56.7068 85.1191 56.9086 84.8755 57.1426C84.0938 57.8933 84.1046 57.8965 84.8533 58.7235C85.5452 59.4876 86.2109 60.2761 86.9197 61.0239C87.2758 61.3995 87.1156 61.6306 86.7999 61.8734C86.4908 62.111 86.2159 62.5498 85.7861 62.022C85.578 61.7665 85.3438 61.5323 85.0927 61.2549Z" fill="white"/>
<path d="M81.3283 62.782C80.7736 61.9854 80.2648 61.2098 79.7086 60.4698C79.33 59.9661 79.673 59.7486 79.9974 59.474C80.3368 59.1866 80.5995 59.2042 80.8649 59.5762C81.8452 60.9502 82.8307 62.3205 83.829 63.6813C84.1407 64.1063 83.8118 64.2854 83.5526 64.4596C83.2754 64.6459 82.9786 65.0563 82.618 64.5718C82.1878 63.9939 81.7746 63.4033 81.3283 62.782Z" fill="white"/>
<path d="M37.1454 54.5048C37.7594 54.0462 38.3515 53.6307 38.9121 53.1765C39.3073 52.8563 39.5445 53.0324 39.7614 53.3674C39.9657 53.683 40.3114 53.9777 39.8088 54.3545C38.4723 55.3566 37.1463 56.373 35.8261 57.3965C35.3789 57.7431 35.1532 57.4282 34.9217 57.1325C34.6993 56.8483 34.4875 56.5654 34.9145 56.2453C35.6572 55.6886 36.3793 55.1042 37.1454 54.5048Z" fill="white"/>
</g>
<defs>
<clipPath id="clip0_292_871">
<rect width="127" height="69.4531" fill="white"/>
</clipPath>
</defs>
</svg>
